# xmcd CD database file
#
# Track frame offsets:
#	225
#	11335
#	27080
#	37420
#	49797
#	62077
#	76635
#	88745
#	103665
#	115672
#	126155
#	136687
#	150657
#	165312
#	178362
#	190727
#
# Disc length: 2714 seconds
#
# Revision: 7
# Processed by: cddbd v1.5.2PL0 Copyright (c) Steve Scherf et al.
# Submitted via: CDex 1.50
#
DISCID=c60a9710
DTITLE=Aretha Franklin - A Little Prayer
DYEAR=1989
DGENRE=Soul
TTITLE0=Respect
TTITLE1=I Say A Little Prayer
TTITLE2=Think
TTITLE3=Chain Of Fools
TTITLE4=See Saw
TTITLE5=Do Right Woman Do Right Man
TTITLE6=I Never Loved A Man (The Way I Love You)
TTITLE7=Dr. Feelgood
TTITLE8=(You Make Me Feel Like) A Natural Woman
TTITLE9=Save Me
TTITLE10=The House That Jack Built
TTITLE11=My Guy
TTITLE12=Try A Little Tenderness
TTITLE13=It Ain't Necessarily So
TTITLE14=I'm Sitting On Top Of The World
TTITLE15=I Apologise
EXTD=YEAR: 1989
EXTT0=
EXTT1=
EXTT2=
EXTT3=
EXTT4=
EXTT5=
EXTT6=
EXTT7=
EXTT8=
EXTT9=
EXTT10=
EXTT11=
EXTT12=
EXTT13=
EXTT14=
EXTT15=
PLAYORDER=
